<svg width="21" height="14" viewBox="0 0 21 14" fill="none" xmlns="http://www.w3.org/2000/svg">
<path d="M7.334 0.254972C7.50555 0.426158 7.60254 0.658181 7.60386 0.900532C7.60517 1.14288 7.51069 1.37594 7.341 1.54897L3.066 5.83097H19.336C19.5784 5.83097 19.8109 5.92727 19.9823 6.09868C20.1537 6.27008 20.25 6.50256 20.25 6.74497C20.25 6.98738 20.1537 7.21986 19.9823 7.39127C19.8109 7.56268 19.5784 7.65897 19.336 7.65897H3.073L7.348 11.945C7.51625 12.1188 7.60974 12.3515 7.60843 12.5934C7.60712 12.8353 7.51112 13.067 7.341 13.239C7.25604 13.323 7.15535 13.3895 7.04469 13.4347C6.93403 13.4798 6.81556 13.5027 6.69605 13.502C6.57654 13.5014 6.45833 13.4772 6.34816 13.4309C6.238 13.3845 6.13804 13.3169 6.054 13.232L0.26 7.39597C0.180864 7.31139 0.116621 7.21401 0.0699997 7.10797C0.0225124 6.99676 -0.00132561 6.87689 0 6.75597C-0.000179291 6.51688 0.0931301 6.2872 0.26 6.11597L6.054 0.279972C6.13604 0.193659 6.23438 0.124483 6.34335 0.0764541C6.45231 0.0284248 6.56972 0.00249695 6.68878 0.000171626C6.80784 -0.00215369 6.92617 0.0191702 7.03693 0.0629081C7.14768 0.106646 7.24866 0.171929 7.334 0.254972Z" fill="#E86F80"/>
</svg>
