<svg width="21" height="14" viewBox="0 0 21 14" fill="none" xmlns="http://www.w3.org/2000/svg">
<path d="M12.916 0.254972C12.7444 0.426158 12.6475 0.658181 12.6461 0.900532C12.6448 1.14288 12.7393 1.37594 12.909 1.54897L17.184 5.83097H0.914C0.671592 5.83097 0.439112 5.92727 0.267704 6.09868C0.0962958 6.27008 0 6.50256 0 6.74497C0 6.98738 0.0962958 7.21986 0.267704 7.39127C0.439112 7.56268 0.671592 7.65897 0.914 7.65897H17.177L12.902 11.945C12.7337 12.1188 12.6403 12.3515 12.6416 12.5934C12.6429 12.8353 12.7389 13.067 12.909 13.239C12.994 13.323 13.0946 13.3895 13.2053 13.4347C13.316 13.4798 13.4344 13.5027 13.5539 13.502C13.6735 13.5014 13.7917 13.4772 13.9018 13.4309C14.012 13.3845 14.112 13.3169 14.196 13.232L19.99 7.39597C20.0691 7.31139 20.1334 7.21401 20.18 7.10797C20.2275 6.99676 20.2513 6.87689 20.25 6.75597C20.2502 6.51688 20.1569 6.2872 19.99 6.11597L14.196 0.279972C14.114 0.193659 14.0156 0.124483 13.9067 0.0764541C13.7977 0.0284248 13.6803 0.00249695 13.5612 0.000171626C13.4422 -0.00215369 13.3238 0.0191702 13.2131 0.0629081C13.1023 0.106646 13.0013 0.171929 12.916 0.254972Z" fill="#E86F80"/>
</svg>
