<svg width="12" height="13" viewBox="0 0 12 13" fill="none" xmlns="http://www.w3.org/2000/svg">
<path d="M8.98759 2.56931C9.45413 2.56931 9.83204 2.1939 9.83204 1.72653V0.844452C9.83204 0.376659 9.45455 0 8.98759 0C8.52063 0 8.14355 0.376241 8.14355 0.844452V1.72695C8.14397 2.1939 8.52105 2.56931 8.98759 2.56931Z" fill="#E86F80"/>
<path d="M11.987 1.4598H10.2873V1.88913C10.2873 2.59772 9.71162 3.17504 9.00178 3.17504C8.2911 3.17504 7.7167 2.59772 7.7167 1.88913V1.4598H4.28664V1.88913C4.28664 2.59772 3.71016 3.17504 3.00073 3.17504C2.29131 3.17504 1.71524 2.59813 1.71524 1.88913V1.4598L0 1.43848V12.1731H0.85783H11.1434L12 12.1705L11.987 1.4598ZM11.1426 11.3181H0.85783V4.46053H11.1434V11.3181H11.1426Z" fill="#E86F80"/>
<path d="M2.98717 2.56931C3.45371 2.56931 3.83204 2.1939 3.83204 1.72653V0.844452C3.83204 0.376241 3.45371 0 2.98717 0C2.52063 0 2.14355 0.376241 2.14355 0.844452V1.72695C2.14355 2.1939 2.52021 2.56931 2.98717 2.56931Z" fill="#E86F80"/>
<path d="M5.63977 5.38184H4.28906V6.5741H5.63977V5.38184Z" fill="#E86F80"/>
<path d="M7.82462 5.38184H6.47266V6.5741H7.82462V5.38184Z" fill="#E86F80"/>
<path d="M9.84875 5.38184H8.49805V6.5741H9.84875V5.38184Z" fill="#E86F80"/>
<path d="M5.63977 7.36133H4.28906V8.55276H5.63977V7.36133Z" fill="#E86F80"/>
<path d="M7.82462 7.36133H6.47266V8.55276H7.82462V7.36133Z" fill="#E86F80"/>
<path d="M5.63977 9.38086H4.28906V10.5723H5.63977V9.38086Z" fill="#E86F80"/>
<path d="M3.49342 7.36133H2.14355V8.55276H3.49342V7.36133Z" fill="#E86F80"/>
<path d="M3.49342 9.38086H2.14355V10.5723H3.49342V9.38086Z" fill="#E86F80"/>
<path d="M7.82462 9.38086H6.47266V10.5723H7.82462V9.38086Z" fill="#E86F80"/>
<path d="M9.84875 9.38086H8.49805V10.5723H9.84875V9.38086Z" fill="#E86F80"/>
</svg>
