<svg width="7" height="15" viewBox="0 0 7 15" fill="none" xmlns="http://www.w3.org/2000/svg">
<path d="M1.38333 2.78882C1.38333 3.15171 1.38333 4.77142 1.38333 4.77142H0V7.19575H1.38333V14.4H4.22497V7.19595H6.13185C6.13185 7.19595 6.31044 6.0335 6.397 4.76248C6.14881 4.76248 4.23572 4.76248 4.23572 4.76248C4.23572 4.76248 4.23572 3.35208 4.23572 3.10487C4.23572 2.85712 4.54554 2.52386 4.85177 2.52386C5.15741 2.52386 5.80251 2.52386 6.4 2.52386C6.4 2.19379 6.4 1.0533 6.4 8.66003e-09C5.60237 8.66003e-09 4.69492 8.66003e-09 4.29493 8.66003e-09C1.31308 -0.00016739 1.38333 2.42657 1.38333 2.78882Z" fill="#0866FF"/>
</svg>
