<svg width="18" height="22" viewBox="0 0 18 22" fill="none" xmlns="http://www.w3.org/2000/svg">
<path d="M8.71374 0C13.1106 0.0556033 16.6603 2.67629 17.6724 6.57647C18.5995 10.1497 17.5431 13.1951 14.7024 15.6123C12.7027 17.3146 11.0265 19.2644 9.72831 21.524C9.5665 21.8051 9.36034 21.9975 9.02049 22C8.68001 22.0024 8.46635 21.8148 8.30642 21.5332C6.94263 19.1361 5.13402 17.1099 3.00618 15.3294C1.36064 13.9522 0.370436 12.171 0.0936789 10.0697C-0.369873 6.54653 0.889589 3.69976 3.81271 1.59661C5.34206 0.496153 7.09881 0.0048882 8.71374 0ZM12.7564 8.83421C12.7501 6.81905 11.0765 5.17539 9.03486 5.17783C6.9395 5.18027 5.27147 6.81966 5.27834 8.86965C5.28521 10.8659 6.97449 12.4949 9.03486 12.493C11.079 12.4912 12.7633 10.8347 12.757 8.83421H12.7564Z" fill="#E86F80"/>
</svg>
