<svg width="14" height="14" viewBox="0 0 14 14" fill="none" xmlns="http://www.w3.org/2000/svg">
<path fill-rule="evenodd" clip-rule="evenodd" d="M1.55556 14H12.4444C13.3036 14 14 13.3036 14 12.4444V1.55556C14 0.696446 13.3036 0 12.4444 0H1.55556C0.696446 0 0 0.696446 0 1.55556V12.4444C0 13.3036 0.696446 14 1.55556 14Z" fill="#007EBB"/>
<path fill-rule="evenodd" clip-rule="evenodd" d="M12.0564 12.0554H9.97891V8.51697C9.97891 7.54682 9.61027 7.00466 8.84239 7.00466C8.00704 7.00466 7.57061 7.56886 7.57061 8.51697V12.0554H5.56846V5.31471H7.57061V6.22268C7.57061 6.22268 8.1726 5.10877 9.60303 5.10877C11.0328 5.10877 12.0564 5.98187 12.0564 7.78763V12.0554ZM3.17991 4.43206C2.49793 4.43206 1.94531 3.8751 1.94531 3.1882C1.94531 2.50129 2.49793 1.94434 3.17991 1.94434C3.86188 1.94434 4.41417 2.50129 4.41417 3.1882C4.41417 3.8751 3.86188 4.43206 3.17991 4.43206ZM2.14609 12.0554H4.23381V5.31471H2.14609V12.0554Z" fill="white"/>
</svg>
