<svg width="16" height="12" viewBox="0 0 16 12" fill="none" xmlns="http://www.w3.org/2000/svg">
<path d="M15.9981 1.33183C16.0402 0.816665 15.3879 0.0684154 14.918 0.0593557C10.3602 -0.0262998 5.78594 -0.00241508 1.23477 0.0272349C0.678516 0.0309411 0.00078125 0.698065 0 1.29889V10.7354C0.0339844 11.3572 0.69336 11.977 1.28633 11.9799C5.82539 12.0021 10.3762 12.0231 14.918 11.9424C15.3762 11.9342 16.025 11.2032 15.9981 10.7029V1.33183ZM14.3734 1.06869L8.90586 6.80678C8.3629 7.26965 7.63594 7.26965 7.09297 6.80678L1.62461 1.06869H14.3731H14.3734ZM0.9375 10.2095V1.79223L4.96602 5.98894L0.9375 10.2095ZM1.62461 10.9327L5.64414 6.72648C6.32578 7.38537 6.84063 8.08791 7.85704 8.13938C8.99805 8.19745 9.60118 7.51756 10.3313 6.72648L14.3734 10.9327H1.62461ZM15.0606 10.2095L11.032 6.01282L15.0606 1.79223V10.2095Z" fill="#E86F80"/>
</svg>
