<svg width="18" height="18" viewBox="0 0 18 18" fill="none" xmlns="http://www.w3.org/2000/svg">
<path d="M18 8.27847V9.71719C17.9247 9.86539 17.9439 10.0304 17.9215 10.1874C17.666 11.9738 16.9562 13.5559 15.7562 14.9065C14.3055 16.5391 12.4967 17.5292 10.3306 17.8648C10.1095 17.8993 9.88198 17.8881 9.66729 17.9634H8.26142C8.24219 17.9081 8.19332 17.9305 8.15648 17.9265C7.73191 17.8809 7.30975 17.8168 6.89479 17.7159C3.30681 16.8379 0.643258 13.9268 0.0953271 10.2916C0.0664887 10.1001 0.0801068 9.90063 0 9.71799V8.20958C0.0576769 8.19275 0.0344459 8.14229 0.0384513 8.10704C0.081709 7.72974 0.136182 7.35404 0.221896 6.98394C1.31615 2.23681 5.96235 -0.765589 10.7607 0.17086C14.4697 0.895025 17.3503 3.92146 17.9039 7.66966C17.9335 7.87313 17.9223 8.08301 18 8.27847ZM3.61122 6.50731V6.79169C3.61122 8.41145 3.62483 10.0312 3.60481 11.651C3.5968 12.287 4.04299 12.734 4.68705 12.7316C7.56368 12.7212 10.4403 12.7276 13.317 12.7268C13.9971 12.7268 14.3888 12.3399 14.3896 11.6654C14.3912 10.0344 14.3896 8.40263 14.3896 6.77166C14.3896 6.69316 14.3832 6.61465 14.3784 6.51772C14.3071 6.56178 14.2582 6.59142 14.2101 6.62186C12.6072 7.61919 11.0027 8.61251 9.40454 9.61625C9.12096 9.79409 8.87583 9.79169 8.59306 9.61305C7.36822 8.83922 6.13538 8.0774 4.90494 7.31158C4.48518 7.05043 4.06382 6.79008 3.61122 6.50971V6.50731ZM3.69613 6.45524H14.3007C14.247 6.41999 14.2246 6.40397 14.2013 6.38955C12.5007 5.33134 10.7984 4.27393 9.10093 3.21091C8.9992 3.14683 8.94312 3.18688 8.86943 3.23334C7.52603 4.07046 6.18264 4.90677 4.83845 5.74309C4.46916 5.973 4.10147 6.2021 3.69613 6.45524Z" fill="#E86F80"/>
</svg>
