<svg width="18" height="15" viewBox="0 0 18 15" fill="none" xmlns="http://www.w3.org/2000/svg">
<path d="M0.00049239 5.47965C0.0837063 5.26595 0.0645031 5.03699 0.096016 4.8159C0.371754 2.86358 1.45501 1.55284 3.26356 0.821637C4.21387 0.437573 5.21096 0.244063 6.22676 0.136722C7.66356 -0.0149338 9.1038 -0.0292131 10.5445 0.0392291C11.8627 0.101763 13.169 0.257358 14.4226 0.700509C15.6698 1.14071 16.7083 1.84925 17.3499 3.04527C17.7615 3.81241 17.9368 4.64258 17.9717 5.50623C17.988 5.91049 17.986 5.91049 17.5778 5.91049C16.5409 5.91049 15.5039 5.90802 14.4669 5.91344C14.3315 5.91393 14.2788 5.88931 14.2655 5.73864C14.2178 5.18963 14.1124 4.65292 13.8687 4.1497C13.5407 3.47316 12.9878 3.09599 12.2777 2.9138C11.5726 2.7326 10.8503 2.73309 10.1314 2.72078C9.18849 2.70454 8.24507 2.70404 7.30165 2.71192C6.68616 2.71685 6.0756 2.77544 5.4867 2.97929C4.76486 3.22893 4.28576 3.72181 4.00707 4.42298C3.83276 4.8617 3.75497 5.32208 3.70179 5.78739C3.69342 5.86076 3.69096 5.91393 3.58509 5.91344C2.40188 5.90753 1.21817 5.90802 0.0344673 5.90655C0.0231423 5.90655 0.011325 5.9031 0 5.90113V5.47915L0.00049239 5.47965Z" fill="#E86F80"/>
<path d="M0 6.32227C0.0635183 6.32719 0.127037 6.33654 0.190555 6.33654C1.30336 6.33753 2.41616 6.3395 3.52896 6.33408C3.66535 6.33359 3.70573 6.36412 3.69933 6.50691C3.66781 7.16376 3.36499 7.50154 2.71455 7.55767C2.10694 7.60987 1.49736 7.6138 0.891226 7.54635C0.474664 7.50006 0.16692 7.29621 0.060564 6.85897C0.0507162 6.81958 0.0585944 6.76148 0 6.74326C0 6.60391 0 6.46309 0 6.32227Z" fill="#E86F80"/>
<path d="M8.82895 14.825C6.55017 14.825 4.2709 14.825 1.99212 14.825C1.4756 14.825 1.3013 14.6482 1.3013 14.1263C1.3013 13.1887 1.30277 12.2517 1.29883 11.3142C1.29834 11.1862 1.3269 11.0734 1.38993 10.9646C1.68585 10.4525 2.02166 9.96606 2.36831 9.48795C3.23787 8.28947 4.10595 7.08902 5.08777 5.9777C5.14341 5.91467 5.15769 5.85017 5.1572 5.77089C5.15425 5.50156 5.15819 5.23173 5.15523 4.96239C5.15375 4.80778 5.22417 4.71964 5.37828 4.70192C5.81011 4.65268 6.24194 4.65366 6.67376 4.70093C6.83674 4.71866 6.90617 4.81123 6.90272 4.97371C6.8978 5.18446 6.90568 5.39569 6.89977 5.60644C6.89731 5.69999 6.92981 5.72461 7.02041 5.72461C8.22725 5.72215 9.4341 5.72165 10.6409 5.72461C10.735 5.72461 10.7606 5.69654 10.7581 5.60545C10.7522 5.3888 10.7581 5.17215 10.7557 4.9555C10.7537 4.80729 10.8241 4.72161 10.9679 4.70388C11.4051 4.65021 11.8429 4.65218 12.2806 4.70142C12.4446 4.71964 12.511 4.81861 12.5101 4.97716C12.5081 5.24059 12.513 5.50451 12.5076 5.76794C12.5056 5.86199 12.5327 5.93092 12.5943 6.0033C13.8819 7.51543 15.0695 9.1029 16.1587 10.7642C16.2936 10.97 16.363 11.1813 16.3596 11.4358C16.3463 12.3551 16.3546 13.2754 16.3541 14.1947C16.3541 14.631 16.1597 14.824 15.7199 14.824C13.4234 14.824 11.1269 14.824 8.83043 14.824L8.82895 14.825ZM10.9088 8.08168C11.1914 8.08463 11.4238 7.85666 11.4248 7.57501C11.4258 7.29435 11.1924 7.06194 10.9123 7.06342C10.638 7.06489 10.4115 7.28844 10.4066 7.5627C10.4012 7.84533 10.6272 8.07873 10.9093 8.08168H10.9088ZM11.4248 9.33186C11.4293 9.05021 11.2013 8.81829 10.9191 8.81682C10.6409 8.81534 10.4154 9.03101 10.4071 9.30675C10.3982 9.58839 10.6217 9.82622 10.9029 9.83459C11.1796 9.84296 11.4209 9.61104 11.4253 9.33186H11.4248ZM9.32036 9.32546C9.32085 9.03987 9.09681 8.81583 8.81074 8.81731C8.52909 8.8183 8.29717 9.05267 8.30259 9.33137C8.30751 9.60169 8.53795 9.83163 8.80827 9.83508C9.08746 9.83902 9.31987 9.60809 9.32036 9.32546ZM9.32085 7.57304C9.32085 7.28942 9.09091 7.06096 8.80926 7.06391C8.53795 7.06686 8.3085 7.29386 8.30308 7.56566C8.29767 7.84287 8.53057 8.0802 8.81074 8.08217C9.09386 8.08414 9.32134 7.85715 9.32085 7.57304ZM8.81615 10.5682C8.53155 10.5673 8.29816 10.8002 8.30308 11.0808C8.30751 11.3531 8.54041 11.5836 8.81172 11.5855C9.08598 11.5875 9.31543 11.3615 9.32036 11.0858C9.32528 10.7962 9.1042 10.5692 8.81615 10.5682ZM6.70528 8.81731C6.42707 8.82076 6.20599 9.0443 6.2055 9.32349C6.20501 9.60563 6.44135 9.84 6.72152 9.83508C6.99579 9.83016 7.22081 9.6007 7.2213 9.32496C7.2213 9.03889 6.99332 8.81436 6.70577 8.8178L6.70528 8.81731ZM10.9157 10.5673C10.6321 10.5673 10.4041 10.7952 10.4061 11.0779C10.408 11.3511 10.6316 11.5781 10.9054 11.585C11.1811 11.5919 11.4214 11.3575 11.4243 11.0793C11.4273 10.7977 11.1988 10.5678 10.9157 10.5673ZM6.71168 8.08168C6.99431 8.08266 7.22278 7.8537 7.22179 7.57107C7.22081 7.29681 6.99776 7.06933 6.72448 7.06391C6.44431 7.058 6.20944 7.28598 6.20599 7.56713C6.20255 7.84927 6.42954 8.08069 6.71168 8.08168ZM7.22081 11.0749C7.22081 10.7943 7.00317 10.5727 6.723 10.5682C6.43446 10.5638 6.20648 10.7869 6.20648 11.0734C6.20648 11.3566 6.44185 11.5904 6.72202 11.5845C6.99825 11.5786 7.22081 11.3516 7.22081 11.0744V11.0749Z" fill="#E86F80"/>
<path d="M16.1431 6.33732C16.7114 6.33732 17.2791 6.34076 17.8473 6.33436C17.9684 6.33289 18.0059 6.36095 17.9995 6.4875C17.9684 7.10643 17.6764 7.43387 17.0472 7.48409C16.3647 7.53875 15.6769 7.58257 15.0003 7.4452C14.4198 7.32751 14.2987 6.89716 14.2794 6.40921C14.275 6.29596 14.3691 6.33929 14.4213 6.3388C14.9949 6.33584 15.569 6.33683 16.1431 6.33683V6.33732Z" fill="#E86F80"/>
</svg>
