<svg width="16" height="12" viewBox="0 0 16 12" fill="none" xmlns="http://www.w3.org/2000/svg">
<path d="M15.3764 1.03011C14.7988 0.298451 13.7325 0 11.6961 0H4.30379C2.22075 0 1.13636 0.317703 0.560981 1.09667C0 1.85616 0 2.97522 0 4.52402V7.47603C0 10.4766 0.6656 12 4.30379 12H11.6961C13.4621 12 14.4407 11.7366 15.0738 11.0909C15.723 10.4288 16 9.34771 16 7.47603V4.52402C16 2.89068 15.9566 1.76502 15.3764 1.03011ZM10.2721 6.40758L6.91525 8.27722C6.84021 8.31902 6.75814 8.33976 6.67618 8.33976C6.58338 8.33976 6.49079 8.31314 6.40877 8.26022C6.25435 8.1605 6.16005 7.98212 6.16005 7.78972V4.06243C6.16005 3.87036 6.25409 3.69214 6.40821 3.59236C6.56237 3.49259 6.75412 3.48577 6.91406 3.57432L10.2709 5.43192C10.4417 5.52641 10.5489 5.71431 10.5492 5.91931C10.5494 6.12447 10.4426 6.31264 10.2721 6.40758Z" fill="#FF1418"/>
</svg>
