<svg width="20" height="20" viewBox="0 0 20 20" fill="none" xmlns="http://www.w3.org/2000/svg">
<path d="M19.6714 18.0942L15.8949 14.3287C17.1134 12.7764 17.7745 10.8595 17.7721 8.88603C17.7721 3.97841 13.7936 0 8.88603 0C3.97841 0 0 3.97841 0 8.88603C0 13.7936 3.97841 17.7721 8.88603 17.7721C10.8595 17.7745 12.7764 17.1134 14.3287 15.8949L18.0942 19.6714C18.3027 19.8817 18.5866 20 18.8828 20C19.179 20 19.4629 19.8817 19.6714 19.6714C19.8817 19.4629 20 19.179 20 18.8828C20 18.5866 19.8817 18.3027 19.6714 18.0942ZM2.22151 8.88603C2.22151 5.20532 5.20532 2.22151 8.88603 2.22151C12.5667 2.22151 15.5505 5.20532 15.5505 8.88603C15.5505 12.5667 12.5667 15.5505 8.88603 15.5505C5.20531 15.5505 2.22151 12.5667 2.22151 8.88603Z" fill="white"/>
</svg>
