<svg width="13" height="13" viewBox="0 0 13 13" fill="none" xmlns="http://www.w3.org/2000/svg">
<path d="M11.1113 0C11.8782 0.000117488 12.4999 0.621782 12.5 1.38867V11.1113C12.4999 11.8782 11.8782 12.4999 11.1113 12.5H1.38867C0.621782 12.4999 0.000117488 11.8782 0 11.1113V1.38867C0.00011723 0.621782 0.621782 0.00011723 1.38867 0H11.1113ZM1.91504 10.7637H3.7793V4.74512H1.91504V10.7637ZM8.57324 4.56152C7.29616 4.56158 6.75879 5.55664 6.75879 5.55664V4.74512H4.9707V10.7637H6.75879V7.60449C6.75884 6.75806 7.14873 6.25391 7.89453 6.25391C8.57988 6.25405 8.90914 6.73851 8.90918 7.60449V10.7637H10.7637V6.95312C10.7635 5.34106 9.84974 4.56152 8.57324 4.56152ZM2.83887 1.73633C2.23001 1.73633 1.7364 2.23343 1.73633 2.84668C1.73633 3.45999 2.22996 3.95703 2.83887 3.95703C3.44757 3.95679 3.94043 3.45984 3.94043 2.84668C3.94036 2.23358 3.44753 1.73657 2.83887 1.73633Z" fill="#BFBFBF"/>
</svg>
