<svg width="14" height="18" viewBox="0 0 14 18" fill="none" xmlns="http://www.w3.org/2000/svg">
<path d="M6.77736 0C10.1971 0.0454936 12.958 2.18969 13.7452 5.38075C14.4663 8.30434 13.6446 10.796 11.4352 12.7737C9.87985 14.1665 8.57617 15.7618 7.56646 17.6105C7.44061 17.8405 7.28027 17.998 7.01593 18C6.75112 18.002 6.58494 17.8485 6.46055 17.618C5.39982 15.6568 3.99313 13.999 2.33814 12.5422C1.05827 11.4154 0.288117 9.95811 0.0728614 8.23885C-0.287679 5.35625 0.691902 3.02708 2.96544 1.30632C4.15494 0.405943 5.5213 0.00399944 6.77736 0ZM9.92164 7.22799C9.91678 5.57922 8.61504 4.23441 7.02711 4.23641C5.39739 4.23841 4.10003 5.57972 4.10537 7.25698C4.11072 8.89026 5.4246 10.2231 7.02711 10.2216C8.61699 10.2201 9.92698 8.86476 9.92212 7.22799H9.92164Z" fill="#E86F80"/>
</svg>
