<svg width="15" height="12" viewBox="0 0 15 12" fill="none" xmlns="http://www.w3.org/2000/svg">
<path d="M6.74121 0.0654297C6.83232 0.0133683 6.91086 -0.038053 7.04102 0.0400391C9.23045 1.42625 11.4461 2.78604 13.6357 4.15918C13.6889 4.12597 13.7427 4.09377 13.7959 4.06055C13.861 4.0215 13.9265 3.98273 14.0176 3.93066C14.0306 4.04771 14.0303 4.1518 14.0303 4.25586V10.6201C14.0303 11.4921 13.5227 12 12.6377 12C8.88927 12 5.15369 11.987 1.40527 12C0.57246 12 0.000179921 11.4275 0 10.5947C0.0260307 8.48624 0 6.37704 0 4.26855V3.9043C0.0997676 3.96503 0.197805 4.0255 0.294922 4.08496C0.704758 3.82927 1.09418 3.58765 1.4834 3.3457C3.24039 2.25247 4.98454 1.15932 6.72852 0.0791016L6.74121 0.0654297ZM0.59375 4.26953C0.969502 4.50135 1.33062 4.72705 1.69141 4.95898C3.29223 5.94811 4.90632 6.95 6.49414 7.95215C6.85857 8.18642 7.1844 8.18642 7.54883 7.95215H7.53516C9.50579 6.7205 11.4881 5.49992 13.46 4.26953H0.59375Z" fill="#BFBFBF"/>
</svg>
