<svg width="23" height="23" viewBox="0 0 23 23" fill="none" xmlns="http://www.w3.org/2000/svg">
<path d="M22.2619 20.5288L18.1147 16.3939C19.4528 14.6892 20.1788 12.5842 20.1761 10.4171C20.1761 5.02797 15.8073 0.65918 10.4181 0.65918C5.02895 0.65918 0.660156 5.02797 0.660156 10.4171C0.660156 15.8063 5.02895 20.1751 10.4181 20.1751C12.5852 20.1778 14.6902 19.4518 16.3949 18.1137L20.5298 22.2609C20.7588 22.4918 21.0706 22.6217 21.3958 22.6217C21.7211 22.6217 22.0328 22.4918 22.2619 22.2609C22.4928 22.0318 22.6227 21.7201 22.6227 21.3949C22.6227 21.0696 22.4928 20.7579 22.2619 20.5288ZM3.09965 10.4171C3.09965 6.37527 6.37624 3.09867 10.4181 3.09867C14.46 3.09867 17.7366 6.37527 17.7366 10.4171C17.7366 14.459 14.46 17.7356 10.4181 17.7356C6.37624 17.7356 3.09965 14.459 3.09965 10.4171Z" fill="white"/>
</svg>
