<svg width="18" height="23" viewBox="0 0 18 23" fill="none" xmlns="http://www.w3.org/2000/svg">
<path d="M8.71374 0C13.1106 0.0568507 16.6603 2.73633 17.6724 6.724C18.5995 10.3774 17.5431 13.4911 14.7024 15.9626C12.7027 17.7031 11.0265 19.6966 9.72831 22.0068C9.5665 22.2942 9.36034 22.491 9.02049 22.4935C8.68001 22.496 8.46635 22.3042 8.30642 22.0162C6.94263 19.5654 5.13402 17.4938 3.00618 15.6733C1.36064 14.2652 0.370436 12.4441 0.0936789 10.2956C-0.369873 6.69339 0.889589 3.78276 3.81271 1.63243C5.34206 0.507283 7.09881 0.00499786 8.71374 0ZM12.7564 9.03239C12.7501 6.97202 11.0765 5.29149 9.03486 5.29399C6.9395 5.29649 5.27146 6.97264 5.27834 9.06862C5.28521 11.1096 6.97449 12.7752 9.03486 12.7733C11.079 12.7714 12.7633 11.0778 12.757 9.03239H12.7564Z" fill="#E86F80"/>
</svg>
