<svg width="19" height="23" viewBox="0 0 19 23" fill="none" xmlns="http://www.w3.org/2000/svg">
<path d="M11.045 0.0139984C11.625 -0.075106 12.0971 0.268024 12.1721 0.847984L12.1745 21.5624C12.1596 22.0564 11.7626 22.4542 11.2678 22.4691H0.906676C0.412694 22.4542 0.0148507 22.0572 0 21.5624V5.76045C0.114116 4.6826 0.771456 3.78139 1.77662 3.38277L11.045 0.0139984ZM4.49196 6.5663C3.52744 6.72887 3.50008 8.1991 4.44506 8.39841C4.91247 8.49689 7.12366 8.48829 7.63171 8.41951C8.65094 8.28117 8.68533 6.77968 7.72785 6.5788C7.2878 6.48579 4.95467 6.48892 4.49117 6.56708L4.49196 6.5663ZM4.49196 10.311C3.52744 10.4736 3.50008 11.9438 4.44506 12.1431C4.91247 12.2416 7.12366 12.233 7.63171 12.1642C8.65094 12.0259 8.68533 10.5244 7.72785 10.3235C7.2878 10.2305 4.95467 10.2336 4.49117 10.3118L4.49196 10.311ZM4.49196 14.0558C3.52744 14.2183 3.50008 15.6886 4.44506 15.8879C4.91247 15.9864 7.12366 15.9778 7.63171 15.909C8.65094 15.7706 8.68533 14.2691 7.72785 14.0683C7.2878 13.9753 4.95467 13.9784 4.49117 14.0565L4.49196 14.0558Z" fill="#81589F"/>
<path d="M13.9277 22.4671L14.0747 7.72266C15.0017 8.10878 15.9873 8.44174 16.8924 8.88336C17.9546 9.40079 18.6409 10.1425 18.7276 11.3775C18.9606 14.6916 18.5479 18.2768 18.7253 21.619C18.755 21.934 18.2759 22.4671 17.9937 22.4671H13.9277Z" fill="#81589F"/>
</svg>
