<svg width="22" height="22" viewBox="0 0 22 22" fill="none" xmlns="http://www.w3.org/2000/svg">
<path d="M0.0146554 10.0939C0.741419 0.86102 12.1679 -3.39746 18.7704 3.18872C25.423 9.82444 21.1337 21.3566 11.8271 22H10.109C9.66738 21.8997 9.21369 21.8623 8.76965 21.7716C4.72563 20.9452 1.41683 17.788 0.37109 13.7996L0.0146554 11.899C0.0484865 11.3112 -0.0312581 10.675 0.0146554 10.0939ZM13.9597 15.5806C15.4332 14.0847 15.1402 11.6954 13.4474 10.5144C13.1266 10.2902 12.714 10.0951 12.3582 9.92835C11.6447 9.59427 9.22818 8.91765 10.0305 7.71604C10.579 6.89382 12.2651 7.24724 13.0529 7.51426C13.4166 7.6375 13.7845 8.0169 14.0086 7.52755C14.0993 7.33 14.4563 6.1296 14.4303 5.96709C14.3753 5.62153 13.6836 5.43426 13.3737 5.34485C13.1006 5.2657 12.2518 5.15696 12.1056 5.02345C11.7571 4.70628 12.3745 3.54999 11.5504 3.47326C11.3094 3.45091 10.5796 3.44245 10.3645 3.4938C10.2069 3.53126 10.1483 3.60677 10.1199 3.76445C10.057 4.11786 10.2045 4.86154 10.0256 5.13159C9.91266 5.30195 9.45715 5.39559 9.26443 5.48742C8.25917 5.96649 7.51065 6.61653 7.28773 7.76437C6.89565 9.78457 8.06282 10.8412 9.73746 11.606C10.602 12.0011 12.83 12.5412 12.1213 13.9331C11.5619 15.032 9.55622 14.5831 8.65064 14.2412C8.45792 14.1681 7.88944 13.8419 7.73599 13.883C7.67135 13.9005 7.59946 14.002 7.56744 14.0612C7.46474 14.2497 7.08837 15.5963 7.12039 15.769C7.17355 16.0572 7.73962 16.2644 7.99516 16.3587C8.29783 16.4704 9.80633 16.7731 9.874 16.8426C10.1362 17.1114 9.60878 18.4369 10.3458 18.5196C10.6116 18.5492 11.1952 18.5456 11.4659 18.5208C11.5631 18.5118 11.6749 18.4924 11.7534 18.4332C12.0168 18.2351 11.8652 17.2002 11.9171 16.8661C11.9691 16.5321 12.546 16.465 12.8155 16.3466C13.2341 16.1623 13.6395 15.908 13.9615 15.5806H13.9597Z" fill="#5A7FA0"/>
</svg>
