<svg width="21" height="17" viewBox="0 0 21 17" fill="none" xmlns="http://www.w3.org/2000/svg">
<path d="M20.43 8.19727V14.9675C20.2464 16.0125 19.4542 16.8659 18.3768 16.9978L2.15374 17.0005C1.04922 16.918 0.202736 16.0327 0.0234375 14.9675V8.19727L9.6082 11.3842C10.0227 11.5215 10.4318 11.53 10.8452 11.3842L20.43 8.19727Z" fill="#77AAA3"/>
<path d="M20.4302 4.61243V6.84276L10.2432 10.2244C6.82217 9.14704 3.42773 7.97282 0.0237188 6.84222C0.0790513 6.13141 -0.0507673 5.30888 0.0237188 4.6119C0.114698 3.76116 1.09685 2.58056 1.99654 2.58056H6.77961L6.8392 2.52097V1.4058C6.8392 0.742346 7.74633 0.0751631 8.37201 0.0299394C9.62285 -0.060508 10.9992 0.086336 12.2618 0.049625C12.8029 0.0874001 13.6148 0.876421 13.6148 1.4058V2.52097L13.6744 2.58056H18.4574C19.3561 2.58056 20.3387 3.76116 20.4302 4.6119V4.61243ZM8.57259 1.70481L8.513 1.7644V2.52097L8.57259 2.58056H11.8808L11.9404 2.52097V1.7644L11.8808 1.70481H8.57259Z" fill="#77AAA3"/>
</svg>
