<svg width="53" height="38" viewBox="0 0 53 38" fill="none" xmlns="http://www.w3.org/2000/svg">
<path d="M52.9936 4.1848C53.1333 2.56607 50.9724 0.21497 49.4158 0.186503C34.318 -0.0826373 19.1659 -0.00758849 4.09016 0.0855756C2.24758 0.0972211 0.00258789 2.19341 0 4.08128V33.7321C0.112573 35.6859 2.29675 37.6333 4.26096 37.6424C19.2966 37.7122 34.3711 37.7782 49.4158 37.5246C50.9336 37.4987 53.0828 35.202 52.9936 33.6298V4.1848ZM47.612 3.35796L29.5007 21.3878C27.7021 22.8422 25.2941 22.8422 23.4955 21.3878L5.38152 3.35796H47.6107H47.612ZM3.10547 32.0797V5.63143L16.4499 18.818L3.10547 32.0797ZM5.38152 34.3519L18.6962 21.1355C20.9542 23.2058 22.6596 25.4133 26.0264 25.575C29.806 25.7575 31.8039 23.6212 34.2223 21.1355L47.612 34.3519H5.38152ZM49.8881 32.0797L36.5436 18.8931L49.8881 5.63143V32.0797Z" fill="#E86F80"/>
</svg>
