<?xml version="1.0" encoding="UTF-8"?>
<svg id="Layer_2" data-name="Layer 2" xmlns="http://www.w3.org/2000/svg" viewBox="0 0 395.64 413.69">
  <defs>
    <style>
      .cls-1 {
        stroke-width: 0px;
      }
    </style>
  </defs>
  <g id="Objects">
    <path class="cls-1" d="M392.9,35.04c-60.57,105.39-141.29,257-189.95,351.65-8.06,15.69-24.01,25.77-41.64,26.34-13.23.43-26.67.74-39.72.64-10.11-.07-19.47-5.39-24.74-14.02-33.55-54.92-62.61-100.37-93.82-155.9-6.73-11.98-1.86-27.21,10.6-33,9.68-4.5,19.8-8.61,30.38-12.26,20.31-7.01,42.72,1.48,53.35,20.16,16.3,28.66,32.18,57.64,47.63,86.94,41.32-73.9,114.37-209.15,160.09-280.34,11.76-18.31,33.23-28.05,54.7-24.54,6.97,1.14,13.95,2.56,20.6,4.31,13.04,3.42,19.23,18.34,12.51,30.02Z"/>
  </g>
</svg>