<svg width="15" height="11" viewBox="0 0 15 11" fill="none" xmlns="http://www.w3.org/2000/svg">
<path d="M14.095 0.944272C13.5656 0.27358 12.5881 0 10.7214 0H3.94514C2.03569 0 1.04166 0.291228 0.514232 1.00528C0 1.70148 0 2.72729 0 4.14702V6.85303C0 9.60351 0.610134 11 3.94514 11H10.7214C12.3402 11 13.2373 10.7586 13.8176 10.1667C14.4127 9.55974 14.6667 8.56873 14.6667 6.85303V4.14702C14.6667 2.64979 14.6269 1.61794 14.095 0.944272ZM9.41605 5.87361L6.33898 7.58745C6.27019 7.62577 6.19496 7.64478 6.11983 7.64478C6.03477 7.64478 5.94989 7.62038 5.87471 7.57187C5.73315 7.48046 5.64671 7.31695 5.64671 7.14058V3.72389C5.64671 3.54783 5.73292 3.38446 5.87419 3.293C6.01551 3.20154 6.19127 3.19529 6.33789 3.27646L9.41496 4.97926C9.57151 5.06588 9.66983 5.23812 9.67006 5.42603C9.67025 5.6141 9.57237 5.78659 9.41605 5.87361Z" fill="#BFBFBF"/>
</svg>
